<svg xmlns="http://www.w3.org/2000/svg" width="128" viewBox="0 0 447 447"><path fill="#fff" d="M182.5 78.6l70-70c11.9-11.9 31.2-11.9 43.1 0s11.9 31.2 0 43.1l-70 70zm91.7 91.7l70-70c11.9-11.9 31.2-11.9 43.1 0s11.9 31.2 0 43.1l-70 70zM303 257L138.9 92.9c-2.7-2.7-2.7-7 0-9.7L163 59.1c2.7-2.7 7-2.7 9.7 0l164.1 164.1c2.7 2.7 2.7 7 0 9.7L312.7 257c-2.7 2.7-7 2.7-9.7 0zm-146.6 75.4l-92.9-92.9c-17-17-17-44.6 0-61.6l85.1-85.1L303 247.4l-85 85c-17 17-44.7 17-61.6 0zm-61-2.9l-29-29c-2.7-2.7-2.7-7 0-9.7l29-29 38.7 38.7-29 29c-2.7 2.6-7 2.6-9.7 0zm48.3 115.8L81 382.6c-21.3-21.3-21.3-55.9 0-77.2l9.7 9.7c-16 16-16 42 0 57.9l62.8 62.8c2.7 2.7 2.7 7 0 9.7s-7.1 2.5-9.8-.2z"/></svg>